<svg xmlns="http://www.w3.org/2000/svg" viewBox="0 0 432.14 196.07"><defs><style>.cls-1{fill:#fff;stroke:#fff;stroke-miterlimit:10;}</style></defs><title>top-txt_1</title><g id="レイヤー_2" data-name="レイヤー 2"><g id="レイヤー_1-2" data-name="レイヤー 1"><path class="cls-1" d="M27.43,44.81l1.28,1c-.34.73-.66,1.36-1,1.91l-1.13,2c-.44.78-.77,1.36-1,1.75q-2.91,5.09-5.48,5.08a2.43,2.43,0,0,1-1.86-.85,3.33,3.33,0,0,1-.77-2.33A16.26,16.26,0,0,1,19,47.57a73.58,73.58,0,0,1,4.62-9q3.12-5.34,7.85-12.09T42.14,12.26A55.8,55.8,0,0,0,34,11.75,67,67,0,0,0,22,13a91.71,91.71,0,0,0-11.53,2.77Q5.58,17.31,5.58,18a.38.38,0,0,0,.2.37,2.4,2.4,0,0,0,.64.15l1.14.14c3,.41,4.54.88,4.54,1.4,0,.25-.66.38-2,.36H5.35a20,20,0,0,1-3.2-.18,2,2,0,0,1-1.32-.66A2.67,2.67,0,0,1,.5,18.12a21.78,21.78,0,0,1,.39-2.87,18.9,18.9,0,0,1,2.27-6.6A11.11,11.11,0,0,1,7.85,4.59a32.21,32.21,0,0,1,8.71-2.5A95,95,0,0,1,32,.5a52.49,52.49,0,0,1,7.1.37,11,11,0,0,1,3.82,1.07,3.64,3.64,0,0,1,1.55,1.37,20.86,20.86,0,0,1,.88,2.35l1.2,3.57.19.56a3.36,3.36,0,0,1,.14.45,1.77,1.77,0,0,1,.06.43,5.43,5.43,0,0,1-.68,2.71A36.19,36.19,0,0,1,43.75,17c-1.21,1.61-2.09,2.86-2.66,3.77Q31.07,37,27.43,44.81Z"/><path class="cls-1" d="M70.93,40.31v2.45q-3.37,3.45-5.84,5.64a31.31,31.31,0,0,1-4.31,3.32,6.36,6.36,0,0,1-3.12,1.13q-3,0-3-3.57a15.4,15.4,0,0,1,1.88-6.66,75.34,75.34,0,0,1,5.42-8.9,23.12,23.12,0,0,0-6.06,4.87c-.8.91-1.47,1.7-2,2.34-1.68,1.89-3.29,3.83-4.85,5.8S46.4,50,45.86,50.6a2.24,2.24,0,0,1-1.55.89c-2,0-3-2.49-3-7.45a22.55,22.55,0,0,1,.74-5.4,27.75,27.75,0,0,1,4-7.8Q52.76,20.69,57.6,14.22a109.05,109.05,0,0,1,8-9.78c2.12-2.21,3.55-3.29,4.27-3.24a6,6,0,0,1,2.19.54c.56.29.84.61.84,1a7.66,7.66,0,0,1-1.34,3.2c-.89,1.49-2.43,3.81-4.6,7q-3.52,5-5,7t-4.4,5.78q-2.93,3.75-5.35,6.68c-1.62,1.95-3.46,4.07-5.53,6.34v4.66q5.19-5.79,9-9.47a59,59,0,0,1,6.44-5.57c1.76-1.25,3.05-1.88,3.88-1.88a2.76,2.76,0,0,1,2.17,1.38,4.16,4.16,0,0,1,1,2.27,1.88,1.88,0,0,1-.39,1c-1.86,2.22-3.34,4.07-4.44,5.53a27.87,27.87,0,0,0-2.54,3.92,6.64,6.64,0,0,0-.89,3q0,1.83,1.74,1.83T70.93,40.31Z"/><path class="cls-1" d="M89.48,40.31v2.84a39.42,39.42,0,0,1-7,7.31q-3.26,2.46-5.55,2.46-3.18,0-4.73-3.33a17,17,0,0,1-1.55-7.3,12.93,12.93,0,0,1,.31-2.89,10.24,10.24,0,0,1,.74-2.27c.28-.59.81-1.53,1.59-2.79q5.51-8.58,10.09-8.58c1.57,0,2.36.61,2.36,1.82a9.22,9.22,0,0,1-1.53,3.89,16.9,16.9,0,0,1-2.74,3.76A60.13,60.13,0,0,0,77,39.77a4.48,4.48,0,0,0-1,2.91,3,3,0,0,0,1,2.33,3.94,3.94,0,0,0,2.72.93,7.87,7.87,0,0,0,4-1.34A49.05,49.05,0,0,0,89.48,40.31ZM86.84,23A2.86,2.86,0,0,1,85,22.23a2.33,2.33,0,0,1-.87-1.86,6.44,6.44,0,0,1,1.63-3.81c1.09-1.39,2.21-2.09,3.38-2.09a2.76,2.76,0,0,1,1.94.72,2.71,2.71,0,0,1,.77,2.07A6.18,6.18,0,0,1,90.25,21,4.45,4.45,0,0,1,86.84,23Z"/><path class="cls-1" d="M115.28,33.29q-6.82,7.6-6.83,10.59c0,1.12.45,1.67,1.36,1.67a5.83,5.83,0,0,0,2.93-1.18q1.8-1.18,5.64-4.21v2.67q-5.5,5.45-8.45,7.84c-2,1.61-3.57,2.41-4.82,2.41q-3.18,0-3.18-4.19a7.94,7.94,0,0,1,.39-2.45,15.77,15.77,0,0,1,1.07-2.5q.67-1.3,2.07-3.72c.93-1.62,2-3.45,3.22-5.5a24.82,24.82,0,0,0-5.55,4.47,44.27,44.27,0,0,0-3.68,4q-1.52,1.89-3.24,4.2a32.48,32.48,0,0,1-2.52,3.1,2.32,2.32,0,0,1-1.61.8c-.83,0-1.6-.87-2.29-2.6a16.16,16.16,0,0,1-1.05-6.06,9.34,9.34,0,0,1,.48-3.34,23.48,23.48,0,0,1,1.92-3.41,38.45,38.45,0,0,1,4.62-6,5.52,5.52,0,0,1,3.73-1.92,4.15,4.15,0,0,1,2,.42,1.43,1.43,0,0,1,.75,1.32,1.79,1.79,0,0,1-.23.82,5.45,5.45,0,0,1-.52.77c-.2.24-.61.69-1.23,1.36q-6.12,6.79-6.13,8.81c0,.75.25,1.12.74,1.12.31,0,.91-.49,1.8-1.49s2-2.3,3.46-3.92a63.71,63.71,0,0,1,5-5.06A54,54,0,0,1,111.71,27a6.53,6.53,0,0,1,3.41-1.43q.63,0,1.23,1.71a10.31,10.31,0,0,1,.6,3.45C117,31.26,116.39,32.12,115.28,33.29Z"/><path class="cls-1" d="M147.41,40.31v2.6a80.24,80.24,0,0,1-7.3,7.7q-2.94,2.63-4.92,2.62a5.67,5.67,0,0,1-3.44-1.12A10.81,10.81,0,0,1,129,49a55,55,0,0,1-2.89-5.51q-2,2.44-3.57,4.56t-2.22,2.82a1.67,1.67,0,0,1-1.12.7c-.7,0-1.2-.45-1.51-1.34a12.56,12.56,0,0,1-.47-3.9,27.23,27.23,0,0,1,.83-6.74,30.61,30.61,0,0,1,2.41-6.3,58.79,58.79,0,0,1,4-6.62Q127,23.13,130,19.24c2.81-3.57,5.25-6.48,7.29-8.75a40.87,40.87,0,0,1,5.34-5.12,6.85,6.85,0,0,1,3.78-1.73c1.24,0,1.86.56,1.86,1.67S146,9.72,141.43,15.65s-11.25,14-20,24.31V43.3a188.45,188.45,0,0,1,14.18-14q5.39-4.58,8.33-4.58a2.06,2.06,0,0,1,1.86,1.42,7.68,7.68,0,0,1,.66,3.28,9.81,9.81,0,0,1-3.26,7,57.78,57.78,0,0,1-10,7.43,13,13,0,0,0,2.06,2.54,3.24,3.24,0,0,0,2.25.8,5.19,5.19,0,0,0,2.6-.82,19.38,19.38,0,0,0,2.85-2C143.9,43.52,145.39,42.18,147.41,40.31Zm-15.33,2a29.3,29.3,0,0,0,3.67-3,26.52,26.52,0,0,0,3.74-4.23,6.84,6.84,0,0,0,1.56-3.66c0-.42-.19-.62-.55-.62q-1.47,0-5.06,2.83a41.68,41.68,0,0,0-7,7.26A7,7,0,0,1,132.08,42.29Z"/><path class="cls-1" d="M195.18,40.39v2.52c-2.69,1.71-4.82,2.56-6.37,2.56a9.63,9.63,0,0,1-2.71-.42,43.42,43.42,0,0,1-6,6.48,7.91,7.91,0,0,1-5,2,4.9,4.9,0,0,1-4.49-3.06A16.69,16.69,0,0,1,169,42.91a29.71,29.71,0,0,1,3.73-13.44,74.6,74.6,0,0,1,9-13.62,82.93,82.93,0,0,1,10.19-10.5c3.28-2.77,5.51-4.15,6.67-4.15s1.67.76,1.67,2.29q0,10.17-26.08,35.46c-.05.47-.07,1.39-.07,2.76,0,3.57.95,5.35,2.87,5.35a3.65,3.65,0,0,0,2.27-.91,37.83,37.83,0,0,0,3.51-3.47,8.79,8.79,0,0,1-.93-3.1A8.18,8.18,0,0,1,183.57,35a21,21,0,0,1,4-4.29q2.23-1.8,3.24-1.8,1.59,0,1.59,2.28a12.31,12.31,0,0,1-.91,4.2,41.21,41.21,0,0,1-2.66,5.58,11.36,11.36,0,0,0,1.05.8A2.15,2.15,0,0,0,191,42,7.81,7.81,0,0,0,195.18,40.39Zm-19.72-5.82a38,38,0,0,0,4.06-4.13q2-2.39,6-7.32c2.5-3.15,4.48-5.79,5.91-7.89A52.15,52.15,0,0,0,194.63,10a8,8,0,0,0,1.09-2.87c0-.39-.1-.59-.31-.59q-.85,0-3.55,2.82a67.22,67.22,0,0,0-6.15,7.7q-4.77,6.75-6.91,10.17A30.94,30.94,0,0,0,175.46,34.57Z"/><path class="cls-1" d="M213.72,40.31v2.84a39.41,39.41,0,0,1-7,7.31q-3.25,2.46-5.55,2.46-3.18,0-4.73-3.33a17,17,0,0,1-1.55-7.3,12.93,12.93,0,0,1,.31-2.89,10.83,10.83,0,0,1,.73-2.27c.29-.59.82-1.53,1.59-2.79q5.52-8.58,10.09-8.58c1.58,0,2.37.61,2.37,1.82a9.22,9.22,0,0,1-1.53,3.89,17.23,17.23,0,0,1-2.74,3.76,60.13,60.13,0,0,0-4.4,4.54,4.48,4.48,0,0,0-1,2.91A3,3,0,0,0,201.31,45a3.93,3.93,0,0,0,2.71.93,7.87,7.87,0,0,0,4-1.34A48.26,48.26,0,0,0,213.72,40.31ZM211.09,23a2.84,2.84,0,0,1-1.85-.74,2.33,2.33,0,0,1-.87-1.86A6.44,6.44,0,0,1,210,16.56c1.09-1.39,2.21-2.09,3.38-2.09a2.76,2.76,0,0,1,1.94.72,2.71,2.71,0,0,1,.77,2.07A6.18,6.18,0,0,1,214.5,21,4.45,4.45,0,0,1,211.09,23Z"/><path class="cls-1" d="M244.22,42.91l-12.88,10.6q-5.43,9.39-9.89,14t-6.64,4.64c-.78,0-1.16-.48-1.16-1.44q0-2.79,2.83-7.14a29,29,0,0,1,2.58-3.33c1-1.09,1.89-2,2.75-2.82s2-1.77,3.44-2.94l2.91-2.43Q232,44.15,233.75,40q-3.65,3.88-6.37,6.37a31.09,31.09,0,0,1-5,3.82,8.3,8.3,0,0,1-4.1,1.34c-1.32,0-2.53-1.06-3.64-3.16a13.7,13.7,0,0,1-1.67-6.5,8.38,8.38,0,0,1,.72-3.26A15.39,15.39,0,0,1,216,34.92a29.45,29.45,0,0,1,3.9-4,42,42,0,0,1,5.54-4q6-3.75,9.36-3.76c1.65,0,2.48.61,2.48,1.82q0,2.54-5.39,4.93a34.91,34.91,0,0,0-6.54,3.8,24.78,24.78,0,0,0-5.24,5,8.31,8.31,0,0,0-2,4.79,2.6,2.6,0,0,0,.5,1.67,1.64,1.64,0,0,0,1.32.62A5.58,5.58,0,0,0,223,44.62a61.21,61.21,0,0,0,5.16-4.39,46.23,46.23,0,0,0,4.13-4.63,63,63,0,0,1,4.27-4.89A4.65,4.65,0,0,1,239.61,29a1.7,1.7,0,0,1,1.26.49,1.91,1.91,0,0,1,.48,1.41,15,15,0,0,1-1.41,5.18q-1.42,3.4-5.11,11.12l9.39-6.83Z"/><path class="cls-1" d="M249.46,52.69a1.48,1.48,0,0,1-1.12-.5,2,2,0,0,1-.47-1.4,7.36,7.36,0,0,1,.84-2.5,12.66,12.66,0,0,1,2.09-3.22,3.54,3.54,0,0,1,2.62-1.42c1.11,0,1.67.66,1.67,2a6.63,6.63,0,0,1-.89,2.81,11.36,11.36,0,0,1-2.22,3A3.78,3.78,0,0,1,249.46,52.69Z"/><path class="cls-1" d="M27.43,183.89l1.28,1c-.34.72-.66,1.35-1,1.9l-1.13,2c-.44.77-.77,1.35-1,1.74q-2.91,5.09-5.48,5.09a2.44,2.44,0,0,1-1.86-.86,3.31,3.31,0,0,1-.77-2.33A16.31,16.31,0,0,1,19,186.64a73.58,73.58,0,0,1,4.62-9q3.12-5.34,7.85-12.09t10.68-14.24a55.8,55.8,0,0,0-8.11-.51A67.88,67.88,0,0,0,22,152a91.71,91.71,0,0,0-11.53,2.77q-4.91,1.57-4.91,2.31a.37.37,0,0,0,.2.37,2.06,2.06,0,0,0,.64.15l1.14.14c3,.42,4.54.88,4.54,1.4,0,.26-.66.38-2,.37s-2.91,0-4.77,0a20,20,0,0,1-3.2-.18,1.88,1.88,0,0,1-1.32-.66,2.67,2.67,0,0,1-.33-1.49,21.78,21.78,0,0,1,.39-2.87,19.05,19.05,0,0,1,2.27-6.6,11.09,11.09,0,0,1,4.69-4.05,31.82,31.82,0,0,1,8.71-2.51A95,95,0,0,1,32,139.57a52.49,52.49,0,0,1,7.1.37A11.22,11.22,0,0,1,42.89,141a3.58,3.58,0,0,1,1.55,1.38,19.77,19.77,0,0,1,.88,2.34l1.2,3.57.19.57a3.22,3.22,0,0,1,.14.44,1.77,1.77,0,0,1,.06.43,5.43,5.43,0,0,1-.68,2.71,36.19,36.19,0,0,1-2.48,3.61c-1.21,1.61-2.09,2.86-2.66,3.77Q31.07,176.09,27.43,183.89Z"/><path class="cls-1" d="M70.93,179.38v2.45q-3.37,3.45-5.84,5.64a30.53,30.53,0,0,1-4.31,3.32,6.36,6.36,0,0,1-3.12,1.13q-3,0-3-3.57a15.43,15.43,0,0,1,1.88-6.66,75.34,75.34,0,0,1,5.42-8.9,23.12,23.12,0,0,0-6.06,4.87c-.8.92-1.47,1.7-2,2.35-1.68,1.88-3.29,3.82-4.85,5.8s-2.6,3.26-3.14,3.86a2.24,2.24,0,0,1-1.55.89q-3,0-3-7.45a22.41,22.41,0,0,1,.74-5.39,27.49,27.49,0,0,1,4-7.8q6.78-10.17,11.62-16.63a109.05,109.05,0,0,1,8-9.78c2.12-2.21,3.55-3.29,4.27-3.24a6,6,0,0,1,2.19.54c.56.29.84.61.84,1a7.66,7.66,0,0,1-1.34,3.2c-.89,1.49-2.43,3.81-4.6,7q-3.52,5-5,7t-4.4,5.78q-2.93,3.75-5.35,6.68c-1.62,2-3.46,4.07-5.53,6.34v4.66q5.19-5.77,9-9.47a59,59,0,0,1,6.44-5.57c1.76-1.25,3.05-1.88,3.88-1.88a2.76,2.76,0,0,1,2.17,1.38,4.16,4.16,0,0,1,1,2.27,1.88,1.88,0,0,1-.39,1c-1.86,2.22-3.34,4.07-4.44,5.53a27.87,27.87,0,0,0-2.54,3.92,6.64,6.64,0,0,0-.89,3c0,1.21.58,1.82,1.74,1.82S66.66,182.72,70.93,179.38Z"/><path class="cls-1" d="M89.48,179.38v2.84a39.42,39.42,0,0,1-7,7.31c-2.17,1.64-4,2.47-5.55,2.47-2.12,0-3.7-1.12-4.73-3.34a17,17,0,0,1-1.55-7.3,12.93,12.93,0,0,1,.31-2.89,10.24,10.24,0,0,1,.74-2.27q.42-.88,1.59-2.79,5.51-8.58,10.09-8.58c1.57,0,2.36.61,2.36,1.83a9.24,9.24,0,0,1-1.53,3.88,16.67,16.67,0,0,1-2.74,3.76,60.13,60.13,0,0,0-4.4,4.54,4.5,4.5,0,0,0-1,2.91,3,3,0,0,0,1,2.33,3.94,3.94,0,0,0,2.72.93,7.87,7.87,0,0,0,4-1.34A49.05,49.05,0,0,0,89.48,179.38ZM86.84,162A2.86,2.86,0,0,1,85,161.3a2.33,2.33,0,0,1-.87-1.86,6.39,6.39,0,0,1,1.63-3.8c1.09-1.4,2.21-2.1,3.38-2.1a2.76,2.76,0,0,1,1.94.72,2.71,2.71,0,0,1,.77,2.07A6.16,6.16,0,0,1,90.25,160,4.42,4.42,0,0,1,86.84,162Z"/><path class="cls-1" d="M115.28,172.36q-6.82,7.6-6.83,10.59c0,1.12.45,1.67,1.36,1.67a5.83,5.83,0,0,0,2.93-1.18q1.8-1.19,5.64-4.21v2.68q-5.5,5.43-8.45,7.83c-2,1.61-3.57,2.41-4.82,2.41q-3.18,0-3.18-4.19a7.83,7.83,0,0,1,.39-2.44,15.48,15.48,0,0,1,1.07-2.51c.45-.86,1.14-2.11,2.07-3.72s2-3.45,3.22-5.49a24.43,24.43,0,0,0-5.55,4.46,44.29,44.29,0,0,0-3.68,4q-1.52,1.88-3.24,4.19a32.48,32.48,0,0,1-2.52,3.1,2.32,2.32,0,0,1-1.61.8c-.83,0-1.6-.87-2.29-2.6a16.12,16.12,0,0,1-1.05-6.06,9.24,9.24,0,0,1,.48-3.33,24,24,0,0,1,1.92-3.42,38.45,38.45,0,0,1,4.62-6A5.52,5.52,0,0,1,99.49,167a4.15,4.15,0,0,1,2,.42,1.43,1.43,0,0,1,.75,1.32,1.79,1.79,0,0,1-.23.82,5.45,5.45,0,0,1-.52.77c-.2.24-.61.69-1.23,1.36q-6.12,6.79-6.13,8.81c0,.75.25,1.13.74,1.13q.47,0,1.8-1.5t3.46-3.92a65.44,65.44,0,0,1,5-5.06,54,54,0,0,1,6.58-5.08,6.48,6.48,0,0,1,3.41-1.44q.63,0,1.23,1.71a10.36,10.36,0,0,1,.6,3.45C117,170.33,116.39,171.2,115.28,172.36Z"/><path class="cls-1" d="M147.41,179.38V182a81.79,81.79,0,0,1-7.3,7.71c-2,1.74-3.6,2.62-4.92,2.62a5.68,5.68,0,0,1-3.44-1.13,10.76,10.76,0,0,1-2.75-3.1,57.35,57.35,0,0,1-2.89-5.51q-2,2.44-3.57,4.56c-1.06,1.41-1.8,2.34-2.22,2.81a1.67,1.67,0,0,1-1.12.7c-.7,0-1.2-.45-1.51-1.34a12.47,12.47,0,0,1-.47-3.9,27.15,27.15,0,0,1,.83-6.73,30.47,30.47,0,0,1,2.41-6.31,57.85,57.85,0,0,1,4-6.61q2.46-3.56,5.53-7.44c2.81-3.57,5.25-6.48,7.29-8.75a40.87,40.87,0,0,1,5.34-5.12,6.85,6.85,0,0,1,3.78-1.73c1.24,0,1.86.56,1.86,1.67s-2.29,4.41-6.87,10.34-11.25,14.05-20,24.32v3.33a190.43,190.43,0,0,1,14.18-14q5.39-4.58,8.33-4.57a2,2,0,0,1,1.86,1.41,7.71,7.71,0,0,1,.66,3.28,9.8,9.8,0,0,1-3.26,7,57.78,57.78,0,0,1-10,7.43,13.07,13.07,0,0,0,2.06,2.55,3.24,3.24,0,0,0,2.25.79,5.27,5.27,0,0,0,2.6-.81,20.26,20.26,0,0,0,2.85-2.06C143.9,182.59,145.39,181.25,147.41,179.38Zm-15.33,2a30,30,0,0,0,3.67-3,27.41,27.41,0,0,0,3.74-4.23,6.87,6.87,0,0,0,1.56-3.67c0-.41-.19-.62-.55-.62q-1.47,0-5.06,2.83a41.68,41.68,0,0,0-7,7.26A7.13,7.13,0,0,1,132.08,181.36Z"/><path class="cls-1" d="M188,179.38v2.84a39.42,39.42,0,0,1-7,7.31c-2.17,1.64-4,2.47-5.55,2.47-2.12,0-3.7-1.12-4.73-3.34a17.19,17.19,0,0,1-1.55-7.3,12.93,12.93,0,0,1,.31-2.89,10.79,10.79,0,0,1,.74-2.27q.42-.88,1.59-2.79,5.51-8.58,10.09-8.58c1.57,0,2.36.61,2.36,1.83a9.24,9.24,0,0,1-1.53,3.88A16.67,16.67,0,0,1,180,174.3a62.3,62.3,0,0,0-4.4,4.54,4.5,4.5,0,0,0-1,2.91,3,3,0,0,0,1.05,2.33,3.94,3.94,0,0,0,2.72.93,7.87,7.87,0,0,0,4-1.34A49.05,49.05,0,0,0,188,179.38ZM185.4,162a2.86,2.86,0,0,1-1.85-.74,2.33,2.33,0,0,1-.87-1.86,6.46,6.46,0,0,1,1.63-3.8c1.09-1.4,2.21-2.1,3.38-2.1a2.76,2.76,0,0,1,1.94.72,2.71,2.71,0,0,1,.77,2.07,6.16,6.16,0,0,1-1.59,3.69A4.42,4.42,0,0,1,185.4,162Z"/><path class="cls-1" d="M213.84,172.36Q207,180,207,183c0,1.12.45,1.67,1.36,1.67a5.83,5.83,0,0,0,2.93-1.18q1.8-1.19,5.65-4.21v2.68q-5.52,5.43-8.46,7.83c-2,1.61-3.57,2.41-4.82,2.41q-3.18,0-3.18-4.19a7.83,7.83,0,0,1,.39-2.44A15.48,15.48,0,0,1,202,183c.45-.86,1.14-2.11,2.07-3.72s2-3.45,3.22-5.49a24.21,24.21,0,0,0-5.54,4.46,43.07,43.07,0,0,0-3.69,4q-1.51,1.88-3.24,4.19a32.48,32.48,0,0,1-2.52,3.1,2.32,2.32,0,0,1-1.61.8c-.83,0-1.59-.87-2.29-2.6a16.12,16.12,0,0,1-1-6.06,9.24,9.24,0,0,1,.48-3.33,23.3,23.3,0,0,1,1.93-3.42,37.9,37.9,0,0,1,4.61-6,5.52,5.52,0,0,1,3.73-1.92,4.13,4.13,0,0,1,2,.42,1.43,1.43,0,0,1,.75,1.32,1.68,1.68,0,0,1-.23.82,4.72,4.72,0,0,1-.52.77c-.2.24-.61.69-1.23,1.36q-6.12,6.79-6.13,8.81c0,.75.25,1.13.74,1.13q.47,0,1.8-1.5t3.46-3.92a65.44,65.44,0,0,1,5-5.06,54,54,0,0,1,6.58-5.08,6.47,6.47,0,0,1,3.42-1.44c.41,0,.82.57,1.22,1.71a10.36,10.36,0,0,1,.6,3.45C215.51,170.33,215,171.2,213.84,172.36Z"/><path class="cls-1" d="M242.87,172.36Q236,180,236,183c0,1.12.45,1.67,1.35,1.67a5.83,5.83,0,0,0,2.93-1.18q1.81-1.19,5.65-4.21v2.68q-5.5,5.43-8.46,7.83t-4.81,2.41q-3.18,0-3.18-4.19a7.83,7.83,0,0,1,.39-2.44A15.39,15.39,0,0,1,231,183c.45-.86,1.15-2.11,2.08-3.72s2-3.45,3.22-5.49a24,24,0,0,0-5.55,4.46,43.07,43.07,0,0,0-3.69,4q-1.51,1.88-3.24,4.19a32.48,32.48,0,0,1-2.52,3.1,2.32,2.32,0,0,1-1.61.8c-.83,0-1.59-.87-2.29-2.6a16.12,16.12,0,0,1-1.05-6.06,9.21,9.21,0,0,1,.49-3.33,22.13,22.13,0,0,1,1.92-3.42,37.85,37.85,0,0,1,4.62-6,5.48,5.48,0,0,1,3.72-1.92,4.1,4.1,0,0,1,2,.42,1.42,1.42,0,0,1,.76,1.32,1.7,1.7,0,0,1-.24.82,4.16,4.16,0,0,1-.52.77c-.19.24-.6.69-1.22,1.36q-6.14,6.79-6.13,8.81c0,.75.24,1.13.74,1.13q.47,0,1.8-1.5t3.45-3.92a63.92,63.92,0,0,1,5-5.06A54,54,0,0,1,239.3,166a6.44,6.44,0,0,1,3.41-1.44c.41,0,.82.57,1.22,1.71a10.36,10.36,0,0,1,.6,3.45C244.53,170.33,244,171.2,242.87,172.36Z"/><path class="cls-1" d="M270.69,179.31v2.6a20.58,20.58,0,0,1-4.12,3.1,9,9,0,0,1-4.46.62q-5,6-8.88,6a6.16,6.16,0,0,1-4-1.44,9.92,9.92,0,0,1-2.85-3.92,13.74,13.74,0,0,1-1.07-5.55,11.73,11.73,0,0,1,1.65-5.51,24.61,24.61,0,0,1,4.27-5.64,23.8,23.8,0,0,1,5.6-4.23,11.9,11.9,0,0,1,5.55-1.61,6.14,6.14,0,0,1,2.87.56,1.73,1.73,0,0,1,1,1.57,2.94,2.94,0,0,1-.89,1.79,3.3,3.3,0,0,1,2,1,4.54,4.54,0,0,1,.54,2.61,16.65,16.65,0,0,1-.87,4.7,23.4,23.4,0,0,1-2.39,5.32l.7.69H266a2.82,2.82,0,0,0,1.3-.33,8.33,8.33,0,0,0,1.15-.69Zm-8-10.21q-3.21,2-5.51,3.51a27.31,27.31,0,0,0-3.88,3.18,8.58,8.58,0,0,0-2.13,3.25c-.65,2.89-1,4.46-1,4.69q0,2.57,3.57,2.56,1.66,0,5.59-2.87a10.27,10.27,0,0,1-.66-3.49,13.35,13.35,0,0,1,1-5A42.12,42.12,0,0,1,262.69,169.1Z"/><path class="cls-1" d="M275.69,179.46l-.69,3.26a5.5,5.5,0,0,0-.16,1.4c0,1.4.58,2.09,1.75,2.09s3.81-2.17,8.11-6.52a12.62,12.62,0,0,1,1.88-5.82,32.24,32.24,0,0,1,4.07-5.78c1.49-1.65,2.6-2.48,3.32-2.48q1.71,0,1.71,2.25a10.75,10.75,0,0,1-.66,3.32,25.65,25.65,0,0,1-1.94,4.23,38.74,38.74,0,0,1-3.15,4.67c.65,1.17,1.31,1.75,2,1.75a3.84,3.84,0,0,0,1.89-.6,23.69,23.69,0,0,0,2.58-1.85V182a21.39,21.39,0,0,1-3.44,2.33,7.25,7.25,0,0,1-3.24.62,7.75,7.75,0,0,1-2.79-1,82.15,82.15,0,0,1-6.44,6.26q-2.49,2.08-4,2.08-2.67,0-4.56-3.2A13.7,13.7,0,0,1,270,182q0-5.16,5.82-12.37a17.72,17.72,0,0,1,2.81-3,4,4,0,0,1,2.43-.8,5.73,5.73,0,0,1,2.21.43c.7.28,1.05.62,1.05,1,0,1.29-.87,3.19-2.6,5.68A30.88,30.88,0,0,1,275.69,179.46Z"/><path class="cls-1" d="M300.84,172.44a47.32,47.32,0,0,1,11.45-8q5.54-2.59,8.57-2.6a2.14,2.14,0,0,1,1.51.68,5.21,5.21,0,0,1,1.11,1.57,3.77,3.77,0,0,1,.41,1.32,1.11,1.11,0,0,1-.55,1,10.46,10.46,0,0,1-1.9.8c.18.41.42.94.7,1.59s.51,1.17.66,1.57a2.91,2.91,0,0,1,.23,1.07c0,.62-.62,1.78-1.88,3.47s-2.13,2.94-2.64,3.74a5.5,5.5,0,0,0-.75,2.95q0,2.88,2.64,2.88t8.49-5.09v2.37q-9.81,10.9-14,10.9a2.38,2.38,0,0,1-2.16-1,5.49,5.49,0,0,1-.64-2.93q0-3.06,2.21-8.88-5.65,6.28-8.42,8.94c-1.83,1.77-3.35,2.66-4.54,2.66q-.85,0-2.13-1.47a14.41,14.41,0,0,1-2.27-3.83,12.36,12.36,0,0,1-1-4.87,11.34,11.34,0,0,1,.35-3,7.25,7.25,0,0,1,1.36-2.51A34.41,34.41,0,0,1,300.84,172.44Zm18.58-4.27q-10.08,4.62-14.37,7.84t-4.29,6.63a4.23,4.23,0,0,0,.43,2,1.29,1.29,0,0,0,1.16.8,4.07,4.07,0,0,0,1.51-.55,30.39,30.39,0,0,0,7.45-6.26Q314.7,174.8,319.42,168.17Z"/><path class="cls-1" d="M342.16,159.25h1.67a21.26,21.26,0,0,1,3.73-5.22,5.43,5.43,0,0,1,3.8-1.54c1.42,0,2.13.33,2.13,1a7.79,7.79,0,0,1-1.66,2.53,32.84,32.84,0,0,0-2.53,3.45l2.35.27,1.61.19a60.29,60.29,0,0,1-5.55,8.43l-1.82-.14-1.49-.12-1.85-.13q-2.1,3.38-3.51,6a33.78,33.78,0,0,0-2.17,4.87,12.84,12.84,0,0,0-.76,4.19c0,1.79.71,2.68,2.13,2.68a7.73,7.73,0,0,0,3.87-1.57c1.59-1,3.71-2.66,6.38-4.83v2.6Q338,193.28,333,193.28a3.42,3.42,0,0,1-2.82-1.36,5.5,5.5,0,0,1-1.06-3.49,12.07,12.07,0,0,1,.6-3.42q.6-2,2.15-6l-1,.91-.89.81-.87.78-.93.83v-2.68q4.06-3.41,9.85-12l-1.08,0c-.34,0-.74,0-1.21,0a13.69,13.69,0,0,0-3.41.31c-.31.08-.6.16-.88.25a2.18,2.18,0,0,1-.56.14q-.15,0-.15-.24a8.57,8.57,0,0,1,1.59-3.84,14.14,14.14,0,0,1,2.42-3.22,6.07,6.07,0,0,1,2.8-1.42A22.92,22.92,0,0,1,342.16,159.25Z"/><path class="cls-1" d="M367,179.38v2.84a39.74,39.74,0,0,1-7,7.31c-2.18,1.64-4,2.47-5.55,2.47-2.12,0-3.7-1.12-4.74-3.34a17.19,17.19,0,0,1-1.55-7.3,12.93,12.93,0,0,1,.31-2.89,10.79,10.79,0,0,1,.74-2.27q.42-.88,1.59-2.79,5.5-8.58,10.09-8.58c1.58,0,2.36.61,2.36,1.83a9.24,9.24,0,0,1-1.53,3.88,17,17,0,0,1-2.73,3.76,63.16,63.16,0,0,0-4.41,4.54,4.56,4.56,0,0,0-1,2.91,3,3,0,0,0,1.05,2.33,4,4,0,0,0,2.72.93,7.87,7.87,0,0,0,4-1.34A48.21,48.21,0,0,0,367,179.38ZM364.32,162a2.81,2.81,0,0,1-1.84-.74,2.34,2.34,0,0,1-.88-1.86,6.46,6.46,0,0,1,1.63-3.8c1.09-1.4,2.22-2.1,3.38-2.1a2.74,2.74,0,0,1,1.94.72,2.68,2.68,0,0,1,.78,2.07,6.12,6.12,0,0,1-1.6,3.69A4.4,4.4,0,0,1,364.32,162Z"/><path class="cls-1" d="M391.56,179.31v2.6a20.87,20.87,0,0,1-4.11,3.1,9.06,9.06,0,0,1-4.47.62q-5,6-8.88,6a6.16,6.16,0,0,1-4-1.44,9.92,9.92,0,0,1-2.85-3.92,13.91,13.91,0,0,1-1.07-5.55,11.73,11.73,0,0,1,1.65-5.51,24.61,24.61,0,0,1,4.27-5.64,23.85,23.85,0,0,1,5.61-4.23,11.83,11.83,0,0,1,5.54-1.61,6.22,6.22,0,0,1,2.88.56,1.72,1.72,0,0,1,1,1.57,2.88,2.88,0,0,1-.89,1.79,3.27,3.27,0,0,1,2,1,4.54,4.54,0,0,1,.54,2.61A16.65,16.65,0,0,1,388,176a23.4,23.4,0,0,1-2.39,5.32l.7.69h.58a2.79,2.79,0,0,0,1.3-.33,8.33,8.33,0,0,0,1.15-.69Zm-8-10.21q-3.22,2-5.51,3.51a26.75,26.75,0,0,0-3.88,3.18A8.62,8.62,0,0,0,372,179c-.64,2.89-1,4.46-1,4.69q0,2.57,3.57,2.56c1.11,0,3-1,5.59-2.87a10.27,10.27,0,0,1-.66-3.49,13.55,13.55,0,0,1,1-5A41.21,41.21,0,0,1,383.57,169.1Z"/><path class="cls-1" d="M417.64,172.36Q410.8,180,410.81,183c0,1.12.45,1.67,1.36,1.67a5.81,5.81,0,0,0,2.92-1.18q1.82-1.19,5.65-4.21v2.68q-5.5,5.43-8.46,7.83t-4.81,2.41q-3.18,0-3.18-4.19a7.83,7.83,0,0,1,.39-2.44,15.39,15.39,0,0,1,1.06-2.51c.46-.86,1.15-2.11,2.08-3.72s2-3.45,3.22-5.49a24.22,24.22,0,0,0-5.55,4.46,43.07,43.07,0,0,0-3.69,4c-1,1.25-2.09,2.65-3.24,4.19a32.48,32.48,0,0,1-2.52,3.1,2.3,2.3,0,0,1-1.61.8c-.83,0-1.59-.87-2.29-2.6a16.12,16.12,0,0,1-1.05-6.06,9.21,9.21,0,0,1,.49-3.33,22.13,22.13,0,0,1,1.92-3.42,37.85,37.85,0,0,1,4.62-6,5.48,5.48,0,0,1,3.72-1.92,4.1,4.1,0,0,1,2,.42,1.42,1.42,0,0,1,.76,1.32,1.79,1.79,0,0,1-.23.82,4.76,4.76,0,0,1-.53.77c-.19.24-.6.69-1.22,1.36q-6.14,6.79-6.13,8.81c0,.75.24,1.13.74,1.13q.47,0,1.8-1.5t3.45-3.92a63.92,63.92,0,0,1,5-5.06,54,54,0,0,1,6.58-5.08,6.48,6.48,0,0,1,3.41-1.44c.41,0,.82.57,1.22,1.71a10.36,10.36,0,0,1,.6,3.45C419.3,170.33,418.75,171.2,417.64,172.36Z"/><path class="cls-1" d="M426,191.76a1.5,1.5,0,0,1-1.13-.5,2,2,0,0,1-.46-1.4,7.33,7.33,0,0,1,.83-2.5,13.15,13.15,0,0,1,2.1-3.22,3.54,3.54,0,0,1,2.62-1.42c1.11,0,1.66.66,1.66,2a6.49,6.49,0,0,1-.89,2.81,11,11,0,0,1-2.21,3A3.78,3.78,0,0,1,426,191.76Z"/></g></g></svg>